<svg xmlns="http://www.w3.org/2000/svg" viewBox="0 0 309.87 194.87"><defs><style>.cls-1{fill:#1b1948;}.cls-2{fill:#f77;}</style></defs><g id="Layer_1" data-name="Layer 1"><path class="cls-1" d="M79,90a15.89,15.89,0,0,0-12,5.4,16,16,0,0,0-19.93-3.27V90H43a3.76,3.76,0,0,0-3.77,3.76v28.11H43.4a3.76,3.76,0,0,0,3.76-3.76V105.89a8,8,0,1,1,15.94,0v15.93h4.2a3.76,3.76,0,0,0,3.77-3.76V105.89a8,8,0,1,1,15.94,0v15.93h4.2A3.76,3.76,0,0,0,95,118.06V105.89A15.94,15.94,0,0,0,79,90Z"/><path class="cls-2" d="M236.22,89.59a17.44,17.44,0,0,0-10.64-20.82,16.06,16.06,0,0,0-1.7-.55,15.64,15.64,0,0,0-1.75-.38A17.46,17.46,0,0,0,202.5,80.56a.11.11,0,0,1,0,0s0,0,0,0a17.37,17.37,0,0,0,.84,11.42,28.1,28.1,0,0,1,1.83,15.57c0,.1,0,.19,0,.29v0c-.05.2-.08.39-.13.59h0a1.56,1.56,0,0,0,1.14,1.79,1.2,1.2,0,0,0,.38.05h0l.29,0,.18.06a1.26,1.26,0,0,0,.27,0,2,2,0,0,0,.6,0A28.22,28.22,0,0,0,236.2,89.68a.06.06,0,0,1,0,0S236.22,89.61,236.22,89.59Zm-18.61,2a6.67,6.67,0,1,1,8.17-4.71A6.67,6.67,0,0,1,217.61,91.6Z"/><path class="cls-1" d="M162.89,91.71a16.12,16.12,0,0,0-7.3-1.77,16,16,0,0,0-8,2.13V90h-4.37a3.78,3.78,0,0,0-3.6,3.46c0,.1,0,.2,0,.3s0,.21,0,.31v27.81h4.21a3.76,3.76,0,0,0,3.76-3.76V105.89a8,8,0,0,1,8-8,7.89,7.89,0,0,1,2.5.41h0a3.61,3.61,0,0,0,1.1.16,3.77,3.77,0,0,0,2.9-1.36l.22-.3.21-.28L163,96l2.18-2.92A15.36,15.36,0,0,0,162.89,91.71Z"/><path class="cls-1" d="M266.47,74a3.76,3.76,0,0,0-3.76,3.77V92.07a15.94,15.94,0,1,0,0,27.6v2.14h4.2a3.77,3.77,0,0,0,3.77-3.77V74Zm-11.73,39.85a8,8,0,1,1,8-8A8,8,0,0,1,254.74,113.84Z"/><path class="cls-1" d="M183.93,106.05l9.49-9.49.08-.08,4.86-4.85v0h0a.89.89,0,0,0-.55-1.51h-7.66a3.74,3.74,0,0,0-2.63,1.08l0,0-9.23,9.23V74.17h-4.2a3.76,3.76,0,0,0-3.76,3.76V122h3.79a2.75,2.75,0,0,0,.41,0,2.82,2.82,0,0,0,.41,0,3.76,3.76,0,0,0,3.35-3.74v-6.57L188.59,122h9.13a.9.9,0,0,0,.88-.89.88.88,0,0,0-.26-.63Z"/><path class="cls-1" d="M132.61,105.26V89.92h-4.2a3.77,3.77,0,0,0-3.47,2.3l-.3-.17a16,16,0,1,0,0,27.64v2.12h4.52a3.77,3.77,0,0,0,3.45-3.45V106.48c0-.21,0-.41,0-.61S132.62,105.47,132.61,105.26Zm-15.94,8.58a8,8,0,1,1,8-8A8,8,0,0,1,116.67,113.84Z"/></g></svg>