<svg xmlns="http://www.w3.org/2000/svg" viewBox="0 0 309.87 194.87"><defs><style>.cls-1{fill:#222;}</style></defs><g id="Layer_1" data-name="Layer 1"><path class="cls-1" d="M79,92.57a15.89,15.89,0,0,0-12,5.4,15.93,15.93,0,0,0-19.93-3.26V92.57H43a3.77,3.77,0,0,0-3.77,3.77v28.11H43.4a3.76,3.76,0,0,0,3.76-3.77V108.51a8,8,0,1,1,15.94,0v15.94h4.2a3.77,3.77,0,0,0,3.77-3.77V108.51a8,8,0,1,1,15.94,0v15.94h4.2A3.77,3.77,0,0,0,95,120.68V108.51A15.94,15.94,0,0,0,79,92.57Z"/><path class="cls-1" d="M236.22,92.22a17.46,17.46,0,0,0-10.64-20.83c-.55-.21-1.12-.39-1.7-.55s-1.17-.28-1.75-.37A17.46,17.46,0,0,0,202.5,83.18a.09.09,0,0,1,0,0v0a17.34,17.34,0,0,0,.84,11.41,28.11,28.11,0,0,1,1.83,15.57c0,.1,0,.2,0,.3v0c-.05.2-.08.38-.13.59h0a1.57,1.57,0,0,0,1.14,1.79,1.58,1.58,0,0,0,.38,0h.3l.18.07.27,0a3,3,0,0,0,.6,0A28.24,28.24,0,0,0,236.2,92.31a.09.09,0,0,1,0,0S236.22,92.23,236.22,92.22Zm-18.61,2a6.67,6.67,0,1,1,8.17-4.72A6.68,6.68,0,0,1,217.61,94.23Z"/><path class="cls-1" d="M162.89,94.33a15.88,15.88,0,0,0-4.63-1.54,15.69,15.69,0,0,0-2.67-.23,15.86,15.86,0,0,0-8,2.14V92.58h-4.37a3.78,3.78,0,0,0-3.6,3.46c0,.1,0,.2,0,.3s0,.2,0,.3v27.82h4.21a3.76,3.76,0,0,0,3.76-3.77V108.52a8,8,0,0,1,8-8,7.89,7.89,0,0,1,2.5.4l0,0a4,4,0,0,0,1.1.16,3.75,3.75,0,0,0,2.9-1.37l.22-.3.21-.27.4-.54,2.18-2.92A16.27,16.27,0,0,0,162.89,94.33Z"/><path class="cls-1" d="M266.47,76.62a3.76,3.76,0,0,0-3.76,3.76V94.69a15.94,15.94,0,1,0,0,27.61v2.13h4.2a3.76,3.76,0,0,0,3.77-3.76v-44Zm-11.73,39.85a8,8,0,1,1,8-8A8,8,0,0,1,254.74,116.47Z"/><path class="cls-1" d="M183.93,108.68l9.49-9.49.08-.08,4.86-4.86h0a.88.88,0,0,0-.55-1.5h-7.66a3.75,3.75,0,0,0-2.63,1.09l0,0-9.23,9.22V76.79h-4.2a3.76,3.76,0,0,0-3.76,3.77v44.05h3.79l.41,0,.41,0a3.77,3.77,0,0,0,3.35-3.75V114.3l10.32,10.32h9.13a.88.88,0,0,0,.88-.89.9.9,0,0,0-.26-.63Z"/><path class="cls-1" d="M132.61,107.89V92.54h-4.2a3.76,3.76,0,0,0-3.47,2.31l-.3-.17a16,16,0,1,0,0,27.63v2.12h3.92l.3,0,.3,0a3.76,3.76,0,0,0,3.45-3.44V109.1c0-.2,0-.4,0-.6S132.62,108.09,132.61,107.89Zm-15.94,8.58a8,8,0,1,1,8-8A8,8,0,0,1,116.67,116.47Z"/></g></svg>